<svg width="193" height="65" viewBox="0 0 193 65" fill="none" xmlns="http://www.w3.org/2000/svg">
<g filter="url(#filter0_dd_2_1793)">
<g filter="url(#filter1_di_2_1793)">
<circle cx="162" cy="27.5" r="12" fill="url(#paint0_linear_2_1793)"/>
</g>
<rect x="159.391" y="20.7175" width="5.21739" height="13.5652" rx="0.782609" fill="white"/>
<rect x="168.783" y="24.8914" width="5.21739" height="13.5652" rx="0.782609" transform="rotate(90 168.783 24.8914)" fill="white"/>
<path d="M20.016 55.5L11.472 44.588H8.176L18.32 32.14H23.536L14.384 43.34L14.256 41.1L25.552 55.5H20.016ZM4.88 55.5V32.14H9.424V55.5H4.88ZM28.0333 55.5V32.14H32.4813V55.5H28.0333ZM25.8573 35.468V32.14H32.4813V35.468H25.8573ZM38.3913 55.5V38.124H42.8393V55.5H38.3913ZM35.9593 41.452V38.124H42.8393V41.452H35.9593ZM40.0233 36.044C39.1486 36.044 38.4979 35.82 38.0713 35.372C37.6659 34.9027 37.4633 34.3267 37.4633 33.644C37.4633 32.9187 37.6659 32.332 38.0713 31.884C38.4979 31.436 39.1486 31.212 40.0233 31.212C40.8979 31.212 41.5379 31.436 41.9433 31.884C42.3486 32.332 42.5513 32.9187 42.5513 33.644C42.5513 34.3267 42.3486 34.9027 41.9433 35.372C41.5379 35.82 40.8979 36.044 40.0233 36.044ZM47.9655 55.5V38.124H51.4855V45.58H51.1655C51.1655 43.8093 51.4002 42.3373 51.8695 41.164C52.3388 39.9693 53.0322 39.0733 53.9495 38.476C54.8882 37.8787 56.0508 37.58 57.4375 37.58H57.6295C59.6988 37.58 61.2668 38.252 62.3335 39.596C63.4002 40.9187 63.9335 42.9027 63.9335 45.548V55.5H59.4855V45.164C59.4855 44.0973 59.1762 43.2333 58.5575 42.572C57.9602 41.9107 57.1282 41.58 56.0615 41.58C54.9735 41.58 54.0882 41.9213 53.4055 42.604C52.7442 43.2653 52.4135 44.1613 52.4135 45.292V55.5H47.9655ZM69.5475 55.5V38.124H73.9955V55.5H69.5475ZM67.1155 41.452V38.124H73.9955V41.452H67.1155ZM71.1795 36.044C70.3048 36.044 69.6542 35.82 69.2275 35.372C68.8222 34.9027 68.6195 34.3267 68.6195 33.644C68.6195 32.9187 68.8222 32.332 69.2275 31.884C69.6542 31.436 70.3048 31.212 71.1795 31.212C72.0542 31.212 72.6942 31.436 73.0995 31.884C73.5048 32.332 73.7075 32.9187 73.7075 33.644C73.7075 34.3267 73.5048 34.9027 73.0995 35.372C72.6942 35.82 72.0542 36.044 71.1795 36.044ZM91.2818 55.5L85.4578 47.372H82.8658L90.2578 38.124H94.8978L88.0818 46.668L88.1778 44.428L96.3058 55.5H91.2818ZM79.1218 55.5V32.14H83.5698V55.5H79.1218ZM105.33 55.5V51.02C105.33 50.0387 105.479 49.1853 105.778 48.46C106.098 47.7347 106.61 47.0947 107.314 46.54C108.039 45.964 108.989 45.42 110.162 44.908L114.13 43.148C115.111 42.7 115.858 42.156 116.37 41.516C116.903 40.8547 117.17 40.012 117.17 38.988C117.17 37.8573 116.829 36.9613 116.146 36.3C115.485 35.6173 114.535 35.276 113.298 35.276C112.061 35.276 111.101 35.6173 110.418 36.3C109.757 36.9827 109.426 37.932 109.426 39.148H105.042C105.042 37.6973 105.351 36.396 105.97 35.244C106.589 34.0707 107.506 33.1533 108.722 32.492C109.938 31.8093 111.463 31.468 113.298 31.468C115.133 31.468 116.658 31.7987 117.874 32.46C119.09 33.1213 120.007 34.0067 120.626 35.116C121.245 36.204 121.554 37.42 121.554 38.764V39.18C121.554 40.9293 121.063 42.3907 120.082 43.564C119.101 44.716 117.661 45.7187 115.762 46.572L111.794 48.332C111.047 48.652 110.525 48.9933 110.226 49.356C109.927 49.6973 109.778 50.1667 109.778 50.764V52.812L108.69 51.628H121.65V55.5H105.33ZM124.529 50.668V45.74L133.681 31.5L137.105 33.836L129.041 46.444L129.425 47.084H143.761V50.668H124.529ZM136.753 55.5V38.764H140.944V55.5H136.753ZM146.324 55.5V50.38H151.316V55.5H146.324Z" fill="url(#paint1_linear_2_1793)"/>
</g>
<defs>
<filter id="filter0_dd_2_1793" x="0.880005" y="15.5" width="177.12" height="48" filterUnits="userSpaceOnUse" color-interpolation-filters="sRGB">
<feFlood flood-opacity="0" result="BackgroundImageFix"/>
<feColorMatrix in="SourceAlpha" type="matrix" values="0 0 0 0 0 0 0 0 0 0 0 0 0 0 0 0 0 0 127 0" result="hardAlpha"/>
<feOffset dy="4"/>
<feGaussianBlur stdDeviation="2"/>
<feComposite in2="hardAlpha" operator="out"/>
<feColorMatrix type="matrix" values="0 0 0 0 0 0 0 0 0 0 0 0 0 0 0 0 0 0 0.25 0"/>
<feBlend mode="normal" in2="BackgroundImageFix" result="effect1_dropShadow_2_1793"/>
<feColorMatrix in="SourceAlpha" type="matrix" values="0 0 0 0 0 0 0 0 0 0 0 0 0 0 0 0 0 0 127 0" result="hardAlpha"/>
<feOffset dy="4"/>
<feGaussianBlur stdDeviation="2"/>
<feComposite in2="hardAlpha" operator="out"/>
<feColorMatrix type="matrix" values="0 0 0 0 0 0 0 0 0 0 0 0 0 0 0 0 0 0 0.25 0"/>
<feBlend mode="normal" in2="effect1_dropShadow_2_1793" result="effect2_dropShadow_2_1793"/>
<feBlend mode="normal" in="SourceGraphic" in2="effect2_dropShadow_2_1793" result="shape"/>
</filter>
<filter id="filter1_di_2_1793" x="131" y="0.5" width="62" height="62" filterUnits="userSpaceOnUse" color-interpolation-filters="sRGB">
<feFlood flood-opacity="0" result="BackgroundImageFix"/>
<feColorMatrix in="SourceAlpha" type="matrix" values="0 0 0 0 0 0 0 0 0 0 0 0 0 0 0 0 0 0 127 0" result="hardAlpha"/>
<feOffset dy="4"/>
<feGaussianBlur stdDeviation="9.5"/>
<feComposite in2="hardAlpha" operator="out"/>
<feColorMatrix type="matrix" values="0 0 0 0 0.0862745 0 0 0 0 0.470588 0 0 0 0 0.94902 0 0 0 0.2 0"/>
<feBlend mode="normal" in2="BackgroundImageFix" result="effect1_dropShadow_2_1793"/>
<feBlend mode="normal" in="SourceGraphic" in2="effect1_dropShadow_2_1793" result="shape"/>
<feColorMatrix in="SourceAlpha" type="matrix" values="0 0 0 0 0 0 0 0 0 0 0 0 0 0 0 0 0 0 127 0" result="hardAlpha"/>
<feOffset dy="4"/>
<feGaussianBlur stdDeviation="2"/>
<feComposite in2="hardAlpha" operator="arithmetic" k2="-1" k3="1"/>
<feColorMatrix type="matrix" values="0 0 0 0 0 0 0 0 0 0 0 0 0 0 0 0 0 0 0.12 0"/>
<feBlend mode="normal" in2="shape" result="effect2_innerShadow_2_1793"/>
</filter>
<linearGradient id="paint0_linear_2_1793" x1="148.132" y1="6.08823" x2="202.678" y2="11.9568" gradientUnits="userSpaceOnUse">
<stop stop-color="#3A8EF6"/>
<stop offset="1" stop-color="#6F3AFA"/>
</linearGradient>
<linearGradient id="paint1_linear_2_1793" x1="-9.83233" y1="8.81372" x2="289.582" y2="131.225" gradientUnits="userSpaceOnUse">
<stop stop-color="#3A8EF6"/>
<stop offset="1" stop-color="#6F3AFA"/>
</linearGradient>
</defs>
</svg>
