<svg width="184" height="54" viewBox="0 0 184 54" fill="none" xmlns="http://www.w3.org/2000/svg">
<g filter="url(#filter0_di_1_11)">
<path d="M160 28.5C166.627 28.5 172 23.1274 172 16.5C172 9.87258 166.627 4.5 160 4.5C153.373 4.5 148 9.87258 148 16.5C148 23.1274 153.373 28.5 160 28.5Z" fill="url(#paint0_linear_1_11)"/>
</g>
<path d="M161.826 9.7175H158.174C157.741 9.7175 157.391 10.0679 157.391 10.5001V22.5001C157.391 22.9323 157.741 23.2827 158.174 23.2827H161.826C162.258 23.2827 162.608 22.9323 162.608 22.5001V10.5001C162.608 10.0679 162.258 9.7175 161.826 9.7175Z" fill="white"/>
<path d="M166.783 18.3262V14.674C166.783 14.2418 166.433 13.8914 166 13.8914H154C153.568 13.8914 153.218 14.2418 153.218 14.674V18.3262C153.218 18.7584 153.568 19.1088 154 19.1088H166C166.433 19.1088 166.783 18.7584 166.783 18.3262Z" fill="white"/>
<path d="M18.016 44.5L9.472 33.588H6.176L16.32 21.14H21.536L12.384 32.34L12.256 30.1L23.552 44.5H18.016ZM2.88 44.5V21.14H7.424V44.5H2.88ZM26.0333 44.5V21.14H30.4813V44.5H26.0333ZM23.8573 24.468V21.14H30.4813V24.468H23.8573ZM36.3913 44.5V27.124H40.8393V44.5H36.3913ZM33.9593 30.452V27.124H40.8393V30.452H33.9593ZM38.0233 25.044C37.1486 25.044 36.4979 24.82 36.0713 24.372C35.6659 23.9027 35.4633 23.3267 35.4633 22.644C35.4633 21.9187 35.6659 21.332 36.0713 20.884C36.4979 20.436 37.1486 20.212 38.0233 20.212C38.8979 20.212 39.5379 20.436 39.9433 20.884C40.3486 21.332 40.5513 21.9187 40.5513 22.644C40.5513 23.3267 40.3486 23.9027 39.9433 24.372C39.5379 24.82 38.8979 25.044 38.0233 25.044ZM45.9655 44.5V27.124H49.4855V34.58H49.1655C49.1655 32.8093 49.4002 31.3373 49.8695 30.164C50.3388 28.9693 51.0322 28.0733 51.9495 27.476C52.8882 26.8787 54.0508 26.58 55.4375 26.58H55.6295C57.6988 26.58 59.2668 27.252 60.3335 28.596C61.4002 29.9187 61.9335 31.9027 61.9335 34.548V44.5H57.4855V34.164C57.4855 33.0973 57.1762 32.2333 56.5575 31.572C55.9602 30.9107 55.1282 30.58 54.0615 30.58C52.9735 30.58 52.0882 30.9213 51.4055 31.604C50.7442 32.2653 50.4135 33.1613 50.4135 34.292V44.5H45.9655ZM67.5475 44.5V27.124H71.9955V44.5H67.5475ZM65.1155 30.452V27.124H71.9955V30.452H65.1155ZM69.1795 25.044C68.3048 25.044 67.6542 24.82 67.2275 24.372C66.8222 23.9027 66.6195 23.3267 66.6195 22.644C66.6195 21.9187 66.8222 21.332 67.2275 20.884C67.6542 20.436 68.3048 20.212 69.1795 20.212C70.0542 20.212 70.6942 20.436 71.0995 20.884C71.5048 21.332 71.7075 21.9187 71.7075 22.644C71.7075 23.3267 71.5048 23.9027 71.0995 24.372C70.6942 24.82 70.0542 25.044 69.1795 25.044ZM89.2818 44.5L83.4578 36.372H80.8658L88.2578 27.124H92.8978L86.0818 35.668L86.1778 33.428L94.3058 44.5H89.2818ZM77.1218 44.5V21.14H81.5698V44.5H77.1218ZM103.33 44.5V40.02C103.33 39.0387 103.479 38.1853 103.778 37.46C104.098 36.7347 104.61 36.0947 105.314 35.54C106.039 34.964 106.989 34.42 108.162 33.908L112.13 32.148C113.111 31.7 113.858 31.156 114.37 30.516C114.903 29.8547 115.17 29.012 115.17 27.988C115.17 26.8573 114.829 25.9613 114.146 25.3C113.485 24.6173 112.535 24.276 111.298 24.276C110.061 24.276 109.101 24.6173 108.418 25.3C107.757 25.9827 107.426 26.932 107.426 28.148H103.042C103.042 26.6973 103.351 25.396 103.97 24.244C104.589 23.0707 105.506 22.1533 106.722 21.492C107.938 20.8093 109.463 20.468 111.298 20.468C113.133 20.468 114.658 20.7987 115.874 21.46C117.09 22.1213 118.007 23.0067 118.626 24.116C119.245 25.204 119.554 26.42 119.554 27.764V28.18C119.554 29.9293 119.063 31.3907 118.082 32.564C117.101 33.716 115.661 34.7187 113.762 35.572L109.794 37.332C109.047 37.652 108.525 37.9933 108.226 38.356C107.927 38.6973 107.778 39.1667 107.778 39.764V41.812L106.69 40.628H119.65V44.5H103.33ZM122.529 39.668V34.74L131.681 20.5L135.105 22.836L127.041 35.444L127.425 36.084H141.761V39.668H122.529ZM134.753 44.5V27.764H138.944V44.5H134.753ZM144.324 44.5V39.38H149.316V44.5H144.324Z" fill="url(#paint1_linear_1_11)"/>
<defs>
<filter id="filter0_di_1_11" x="129" y="-10.5" width="62" height="62" filterUnits="userSpaceOnUse" color-interpolation-filters="sRGB">
<feFlood flood-opacity="0" result="BackgroundImageFix"/>
<feColorMatrix in="SourceAlpha" type="matrix" values="0 0 0 0 0 0 0 0 0 0 0 0 0 0 0 0 0 0 127 0" result="hardAlpha"/>
<feOffset dy="4"/>
<feGaussianBlur stdDeviation="9.5"/>
<feComposite in2="hardAlpha" operator="out"/>
<feColorMatrix type="matrix" values="0 0 0 0 0.0862745 0 0 0 0 0.470588 0 0 0 0 0.94902 0 0 0 0.2 0"/>
<feBlend mode="normal" in2="BackgroundImageFix" result="effect1_dropShadow_1_11"/>
<feBlend mode="normal" in="SourceGraphic" in2="effect1_dropShadow_1_11" result="shape"/>
<feColorMatrix in="SourceAlpha" type="matrix" values="0 0 0 0 0 0 0 0 0 0 0 0 0 0 0 0 0 0 127 0" result="hardAlpha"/>
<feOffset dy="4"/>
<feGaussianBlur stdDeviation="2"/>
<feComposite in2="hardAlpha" operator="arithmetic" k2="-1" k3="1"/>
<feColorMatrix type="matrix" values="0 0 0 0 0 0 0 0 0 0 0 0 0 0 0 0 0 0 0.12 0"/>
<feBlend mode="normal" in2="shape" result="effect2_innerShadow_1_11"/>
</filter>
<linearGradient id="paint0_linear_1_11" x1="146.132" y1="-4.91177" x2="200.678" y2="0.9568" gradientUnits="userSpaceOnUse">
<stop stop-color="#3A8EF6"/>
<stop offset="1" stop-color="#6F3AFA"/>
</linearGradient>
<linearGradient id="paint1_linear_1_11" x1="-11.8323" y1="-2.18628" x2="287.582" y2="120.225" gradientUnits="userSpaceOnUse">
<stop stop-color="#3A8EF6"/>
<stop offset="1" stop-color="#6F3AFA"/>
</linearGradient>
</defs>
</svg>
